<svg width="32" height="32" viewBox="0 0 32 32" fill="none" xmlns="http://www.w3.org/2000/svg">
  <rect width="32" height="32" rx="8" fill="url(#gradient)"/>
  <path d="M8 12C8 10.8954 8.89543 10 10 10H22C23.1046 10 24 10.8954 24 12V22C24 23.1046 23.1046 24 22 24H10C8.89543 24 8 23.1046 8 22V12Z" stroke="white" stroke-width="2"/>
  <path d="M8 14H24" stroke="white" stroke-width="2"/>
  <circle cx="12" cy="17" r="1" fill="white"/>
  <circle cx="16" cy="17" r="1" fill="white"/>
  <circle cx="20" cy="17" r="1" fill="white"/>
  <circle cx="12" cy="21" r="1" fill="white"/>
  <circle cx="16" cy="21" r="1" fill="white"/>
  <circle cx="20" cy="21" r="1" fill="white"/>
  <defs>
    <linearGradient id="gradient" x1="0" y1="0" x2="32" y2="32" gradientUnits="userSpaceOnUse">
      <stop stop-color="#0066FF"/>
      <stop offset="1" stop-color="#00FF95"/>
    </linearGradient>
  </defs>
</svg>